#!OML:ASF E:/inclinewalkrobotboard/Project1/Captureday1/Session1/subject1.ASF
:FULLY-SPECIFIED
:DEGREES
132
root 0 0 0 -2.2579414999256375 -3.939025859651833 0.47122218736081506
lowerback 7.499861958165209 1.5352765861775453 -2.5029303074058205
upperback 1.7644430205258104 1.9048306190254753 -0.02899255941528367
thorax -2.4110510582347544 1.0003742575012065 1.2724692734704055
lowerneck -9.455540471839113 -5.472576210677989 -6.2915236002611294
upperneck 31.328430272035757 -8.60011900601223 5.857522022651612
head 11.698836116446948 -3.9189473339793777 1.9374310507627812
rclavicle -1.900532187878594E-15 1.2883652992818208E-15
rhumerus -7.570308860538706 1.165933591302942 -79.33653907390783
rradius 48.44758083667396
rwrist -20.622989746322407
rhand -41.95090775407978 16.14412214397382
rfingers 7.125019999999939
rthumb -14.792269435508388 -13.264811327472144
lclavicle -5.973537150996905E-15 5.597836246427621E-16
lhumerus -30.425350259719554 11.467367534907758 78.01601342350683
lradius 25.042226256477125
lwrist -4.459346884758466
lhand -24.107968644379408 21.921790993711497
lfingers 7.125019999999951
lthumb 2.3735062208774043 51.859419267497074
rfemur -15.556432957891934 7.498340738052971 32.75119899850792
rtibia 38.194483869369414
rfoot -12.720881303801445 -9.599898482463015
rtoes 7.068541019264192
lfemur -24.56010802460431 3.1882780686145136 -15.444900542056462
ltibia 55.54836411655134
lfoot -2.760230383966169 -8.131180684843416
ltoes -5.591494916023702
133
root 0 0 0 -2.2835962402965224 -3.95254345612545 0.46720077440165925
lowerback 7.456410184161569 1.533807411861412 -2.491381116979655
upperback 1.7507853170735288 1.9049248867951358 -0.028859648660648607
thorax -2.3991197427074917 1.0001303979005076 1.2668517357027023
lowerneck -9.45558936105977 -5.462498583585523 -6.27855110508768
upperneck 31.361853990206566 -8.592812376788038 5.817273040598012
head 11.70879593357448 -3.914961392820914 1.9208902390834766
rclavicle -2.163654529196495E-15 1.3035744444979342E-15
rhumerus -7.77410182196855 1.4471914333555675 -79.37030758826086
rradius 48.82488991066646
rwrist -20.754270119991702
rhand -41.913831550136884 15.981151173336723
rfingers 7.12501999999994
rthumb -14.760348036216053 -13.430802354602172
lclavicle -6.0803193815671584E-15 5.415584183660286E-16
lhumerus -30.377613550429054 11.38600607682265 78.1162346426563
lradius 25.046829398194006
lwrist -4.452241102111392
lhand -24.022814981812456 21.95631630215716
lfingers 7.12501999999995
lthumb 2.455318875359759 51.89285975371519
rfemur -14.753629221899324 7.567426753081134 32.83747847887465
rtibia 37.091142782031014
rfoot -13.336485930905226 -9.532198647937214
rtoes 7.231812182178791
lfemur -24.734950731602083 3.5019273566497073 -14.868443988143639
ltibia 58.016770434651015
lfoot -3.1321477718689987 -7.439146571363144
ltoes -6.309472869016675
134
root 0 0 0 -2.294693866168517 -3.9487755601230075 0.46643977194090064
lowerback 7.422662434571228 1.5382676600907683 -2.4823763645311723
upperback 1.7515087663958275 1.9122873028029779 -0.03187281614930082
thorax -2.3775979528410076 1.0039050933590428 1.2583455200787568
lowerneck -9.432573259960641 -5.4579914156382054 -6.279614152585106
upperneck 31.35764770965562 -8.59043741496791 5.804305598637376
head 11.70667465092026 -3.9138470974380972 1.9150030728690552
rclavicle -2.4285286789961724E-15 1.3358022319696126E-15
rhumerus -8.141490945137331 1.9101616609286762 -79.44868793542283
rradius 49.38001600324874
rwrist -20.92787133077666
rhand -41.874083473655965 15.779368004735211
rfingers 7.1250199999999415
rthumb -14.726653449678933 -13.637058141672519
lclavicle -6.20813307413945E-15 5.781884797312012E-16
lhumerus -30.372978573181577 11.333797892164347 78.14690252612849
lradius 25.03410741837622
lwrist -4.469030335941437
lhand -23.960874619161025 21.986817830036422
lfingers 7.12501999999995
lthumb 2.5149273091095794 51.92244558350888
rfemur -12.565304020706174 7.723664219774011 33.00490517088395
rtibia 35.12810813489353
rfoot -14.596974701046053 -9.509177034749708
rtoes 7.1025911006573335
lfemur -25.263393608008304 3.7303382514470105 -14.259355006363498
ltibia 59.64815755938417
lfoot -3.681598096306322 -6.588566756399514
ltoes -6.943600521729454
135
root 0 0 0 -2.164779678045987 -4.051385872146394 0.6279801529293387
lowerback 6.983614888979163 1.620255403748177 -2.5920005071214653
upperback 2.356293443797707 2.0158878571627614 -0.06515893788394311
thorax -1.4627985304444202 1.0803321392852954 1.2972502016970933
lowerneck -7.767873299973845 -5.585317827110675 -6.688236958062458
upperneck 32.27930430381949 -8.964295387236547 6.02979512304073
head 11.87010249351413 -4.11338448902384 1.9360311292195238
rclavicle -2.976293340578699E-16 5.623800296355044E-16
rhumerus -12.318176624534285 2.866499203595035 -81.88278581934158
rradius 44.75699434958167
rwrist -21.432751383323566
rhand -42.473178608347865 17.06911539800761
rfingers 7.12501999999995
rthumb -15.326625537098025 -12.310833829385235
lclavicle -5.8684311671108454E-15 5.251441842555658E-16
lhumerus -29.192071331795976 10.70815153812682 79.93141560551368
lradius 25.28640912414622
lwrist -4.117449135681092
lhand -23.224846930341208 22.010309524985313
lfingers 7.125019999999941
lthumb 3.2215196194311493 51.943711174601155
rfemur -12.826796812647189 8.243306797347637 32.09939943124793
rtibia 33.47066109002536
rfoot -15.658130726546526 -10.310215691466356
rtoes 5.001523393336459
lfemur -25.823910725647025 3.1031253328918638 -15.276901650074645
ltibia 52.23696689738328
lfoot -3.4737361081671523 -8.539643521616286
ltoes -6.312250194110684
